<?xml version="1.0" encoding="utf-8"?>
<!-- Generator: Adobe Illustrator 21.1.0, SVG Export Plug-In . SVG Version: 6.00 Build 0)  -->
<svg version="1.1" xmlns="http://www.w3.org/2000/svg" xmlns:xlink="http://www.w3.org/1999/xlink" x="0px" y="0px"
	 viewBox="0 0 181.3 266.4" style="enable-background:new 0 0 181.3 266.4;" xml:space="preserve">
<style type="text/css">
	.st0{clip-path:url(#SVGID_2_);}
	.st1{clip-path:url(#SVGID_4_);fill:#FFFFFF;}
	.st2{clip-path:url(#SVGID_6_);}
	.st3{clip-path:url(#SVGID_8_);fill:#FFD207;}
	.st4{fill:#FFD207;}
</style>
<g id="Layer_1">
	<g>
		<defs>
			<path id="SVGID_1_" d="M181.3,122.7c0,61.8-40.6,101.1-90.6,101.1S0,184.5,0,122.7S40.6,0,90.6,0S181.3,60.9,181.3,122.7z"/>
		</defs>
		<use xlink:href="#SVGID_1_"  style="overflow:visible;fill:#FFFFFF;"/>
		<clipPath id="SVGID_2_">
			<use xlink:href="#SVGID_1_"  style="overflow:visible;"/>
		</clipPath>
		<g class="st0">
			<defs>
				<rect id="SVGID_3_" x="-97.4" y="-208.1" width="375" height="667"/>
			</defs>
			<clipPath id="SVGID_4_">
				<use xlink:href="#SVGID_3_"  style="overflow:visible;"/>
			</clipPath>
			<rect x="-5" y="-5" class="st1" width="191.3" height="233.8"/>
		</g>
	</g>
	<g>
		<defs>
			<path id="SVGID_5_" d="M144.9,131.8c0,33.2-24.4,58.6-54.4,58.6S36.3,165,36.3,131.8C36.3,98.6,60.5,70,90.5,70
				S144.9,98.5,144.9,131.8z"/>
		</defs>
		<clipPath id="SVGID_6_">
			<use xlink:href="#SVGID_5_"  style="overflow:visible;"/>
		</clipPath>
		<g class="st2">
			<defs>
				<rect id="SVGID_7_" x="-97.4" y="-208.1" width="375" height="667"/>
			</defs>
			<clipPath id="SVGID_8_">
				<use xlink:href="#SVGID_7_"  style="overflow:visible;"/>
			</clipPath>
			<rect x="31.3" y="65" class="st3" width="118.6" height="130.4"/>
		</g>
	</g>
</g>
<g id="Layer_4">
	<path class="st4" d="M39.3,151.5c0,0,3.8,11.2,2.2,16.7c-1.6,5.6-2.2,9.7-2.2,9.7s-0.2,5.6,2.6,5.2c2.8-0.3,2.7-3.9,2.7-3.9
		s-2.4-7.3,0-9.7c2.4-2.3,2.4-2.3,2.4-2.3L39.3,151.5z"/>
	<path class="st4" d="M55.1,176.5c0,0,4.2,6.6,2.1,15.5c-2.1,8.9-2.1,13.5-2.1,13.5s0.1,4.8,4.6,3.7s3.2-3.7,3.2-3.7
		s-4.3-9.1-2.2-10.9c2.1-1.7-0.5-8.4,2.3-7c2.9,1.4,2.5,7,2.5,7s-2.4,5.2,2.4,5.6c4.9,0.3,2.6-4.1,2.6-4.1s-2-3.6-1.3-5.7
		c0.7-2.1,1.3-3.9,1.3-3.9L55.1,176.5z"/>
	<path class="st4" d="M90.5,190.4c0,0,5,4.8,3.3,7.8c-1.7,3-1.5,7.4-1.5,7.4s1.1,6.7,4.3,3.6c3.1-3.1,1.4-4.9,1.4-4.9
		s-2.4-8.2,0-8.3c2.4-0.1,2.8-6.7,2.8-6.7L90.5,190.4z"/>
	<path class="st4" d="M120.6,180.9c0,0-2.7,8.6,0,13.5c2.7,4.9,0,9.3,0,9.3s-6,3.9-6-5.1c0-9,4.5-13.3,0-15.4
		S120.6,180.9,120.6,180.9z"/>
	<path class="st4" d="M139.8,157.1c0,0-2.7,25.9,0,28.6c2.7,2.7-0.6,10.4-0.6,10.4s-6.4-0.6-5-8.8c1.4-8.2,2.4-19.1-0.2-19.8
		S139.8,157.1,139.8,157.1z"/>
</g>
<g id="Layer_5">
	<path class="st4" d="M135.4,170.9c0,0-7-1.1-6.6,2.8c0.4,3.9-3.3-9.5-3.3-9.5l9.9-3.3V170.9z"/>
</g>
</svg>
