<?xml version="1.0" encoding="utf-8"?>
<!-- Generator: Adobe Illustrator 21.1.0, SVG Export Plug-In . SVG Version: 6.00 Build 0)  -->
<svg version="1.1" id="Layer_1" xmlns="http://www.w3.org/2000/svg" xmlns:xlink="http://www.w3.org/1999/xlink" x="0px" y="0px"
	 viewBox="0 0 54 54" style="enable-background:new 0 0 54 54;" xml:space="preserve">
<style type="text/css">
	.st0{opacity:0.951;enable-background:new    ;}
	.st1{clip-path:url(#SVGID_2_);}
	.st2{clip-path:url(#SVGID_4_);fill:none;stroke:#FFFFFF;stroke-width:2;stroke-miterlimit:10;}
	.st3{clip-path:url(#SVGID_6_);}
	.st4{clip-path:url(#SVGID_8_);fill:#FFFFFF;}
</style>
<g>
	<g class="st0">
		<g>
			<defs>
				<rect id="SVGID_1_" width="54" height="54"/>
			</defs>
			<clipPath id="SVGID_2_">
				<use xlink:href="#SVGID_1_"  style="overflow:visible;"/>
			</clipPath>
			<g class="st1">
				<defs>
					<rect id="SVGID_3_" x="9" y="9" width="36" height="36"/>
				</defs>
				<clipPath id="SVGID_4_">
					<use xlink:href="#SVGID_3_"  style="overflow:visible;"/>
				</clipPath>
				<circle class="st2" cx="27" cy="27" r="17"/>
			</g>
			<g class="st1">
				<defs>
					<path id="SVGID_5_" d="M18.9,14.8c-3.2,1.1-4.8,4.8-4.8,5c-0.1,0.3,0,0.5,0.3,0.6c0,0,0,0,0.1,0c0.2,0.1,0.5-0.1,0.6-0.3
						c0,0,1.4-3.5,4.2-4.4c0.3-0.1,0.4-0.4,0.3-0.6C19.4,14.9,19.2,14.8,18.9,14.8z"/>
				</defs>
				<clipPath id="SVGID_6_">
					<use xlink:href="#SVGID_5_"  style="overflow:visible;"/>
				</clipPath>
				<g class="st3">
					<defs>
						<rect id="SVGID_7_" x="9" y="9" width="36" height="36"/>
					</defs>
					<clipPath id="SVGID_8_">
						<use xlink:href="#SVGID_7_"  style="overflow:visible;"/>
					</clipPath>
					
						<rect x="8.5" y="10.5" transform="matrix(0.225 -0.9744 0.9744 0.225 -4.193 30.0695)" class="st4" width="16.6" height="14.3"/>
				</g>
			</g>
		</g>
	</g>
</g>
</svg>
