<?xml version="1.0" encoding="utf-8"?>
<!-- Generator: Adobe Illustrator 21.1.0, SVG Export Plug-In . SVG Version: 6.00 Build 0)  -->
<svg version="1.1" id="Layer_1" xmlns="http://www.w3.org/2000/svg" xmlns:xlink="http://www.w3.org/1999/xlink" x="0px" y="0px"
	 viewBox="0 0 181.3 315.5" style="enable-background:new 0 0 181.3 315.5;" xml:space="preserve">
<style type="text/css">
	.st0{fill:#FFD200;}
	.st1{fill:#95C3DE;}
	.st2{fill:#FF9A91;}
	.st3{fill:#E15050;}
	.st4{fill:#FFFFFF;}
    
    #Layer_3 {
    
    animation: egg-crack1 2.0s forwards;
    transform-origin: left;
    
    }
    
    @keyframes egg-crack1 {
    100% {transform:rotate(-90deg) translateY(-150px)}
    
    } 
    
    #Layer_4{
    animation: egg-crack2 2.0s forwards;
    transform-origin: right;
    
    }
    
    @keyframes egg-crack2 {
    100% {transform:rotate(90deg) translateY(-150px)}
    
    } 
    
    #Layer_7 {
    animation: scale 1.5s forwards;
    transform-origin: center;
    }
    
    @keyframes scale {
    100% {transform:scale(3)}
    }
    
    
    
</style>
<g id="Layer_7">
	<path class="st0" d="M46.4,122.8c3.1,6.6,3.3,10.9,3.3,10.9s-4.5-0.2-11-3.2c-5-2.3-5.4-8.8-3.3-10.9
		C37.6,117.5,44.1,117.8,46.4,122.8z"/>
	<path class="st0" d="M10.7,196.8c7,2.2,10.2,5,10.2,5s-3.2,3.2-9.8,5.9c-5.1,2.1-10.1-2-10.2-5C0.7,199.7,5.4,195.1,10.7,196.8z"/>
	<path class="st0" d="M169.3,207.8c-6.8-2.6-10-5.5-10-5.5s3.4-3,10.1-5.4c5.2-1.9,10,2.5,10,5.5
		C179.4,205.4,174.5,209.8,169.3,207.8z"/>
	<path class="st0" d="M145.9,133c-6.6,3.1-10.9,3.3-10.9,3.3s0.2-4.6,3.2-11c2.3-5,8.8-5.5,10.9-3.3
		C151.1,124,150.9,130.5,145.9,133z"/>
	<path class="st0" d="M147,281.6c-1.9-7-1.3-11.4-1.3-11.4s4.5,1,10.3,5c4.5,3.1,3.8,9.6,1.3,11.4
		C154.8,288.4,148.4,287.1,147,281.6z"/>
	<path class="st0" d="M32.2,278.7c6.4-3.6,10.7-4,10.7-4s0.1,4.5-2.4,11.2c-1.9,5.2-8.4,6-10.7,4C27.6,287.9,27.4,281.4,32.2,278.7z
		"/>
	<path class="st1" d="M135,295.4c-0.5,3.7,3.9,4.6,6.4,3.6c2.4-0.9,5-4.5,2.2-7c-2.9-2.5-6.8-4.7-6.8-4.7S135.6,291.5,135,295.4z"/>
	<path class="st1" d="M51.6,298c-3.3,1.7-1.5,5.8,0.6,7.3c2.2,1.4,6.6,1.5,7-2.2c0.4-3.8,0-8.2,0-8.2S55.1,296.2,51.6,298z"/>
	<path class="st1" d="M64.1,103.7c-0.1-3.8-4.7-3.9-6.8-2.7c-2.2,1.2-4.3,5.2-1.2,7.2c3.2,2.1,7.4,3.6,7.4,3.6
		S64.3,107.6,64.1,103.7z"/>
	<path class="st2" d="M20,152.1c-2.1-3.1-6-0.7-7.2,1.5s-0.7,6.7,3,6.7c3.8-0.1,8.1-1,8.1-1S22.3,155.2,20,152.1z"/>
	<path class="st2" d="M10.3,245.8c-3.7-0.5-4.6,4-3.7,6.3s4.5,5.1,7,2.3c2.6-2.9,4.8-6.7,4.8-6.7S14.1,246.3,10.3,245.8z"/>
	<path class="st2" d="M168.2,257.2c2.6,2.7,6.1-0.3,6.8-2.7c0.7-2.4-0.4-6.7-4.1-6.1c-3.8,0.7-7.9,2.4-7.9,2.4
		S165.5,254.5,168.2,257.2z"/>
	<path class="st2" d="M165.7,160.2c3.8,0,4-4.6,2.8-6.8c-1.2-2.2-5.1-4.4-7.2-1.3c-2.1,3.2-3.8,7.3-3.8,7.3S161.8,160.3,165.7,160.2
		z"/>
	<path class="st1" d="M129.4,109.9c3.1-2.2,0.6-6-1.6-7.1c-2.2-1.1-6.7-0.6-6.6,3.1c0.1,3.8,1.2,8.1,1.2,8.1
		S126.3,112.2,129.4,109.9z"/>
	<path class="st0" d="M86.5,309.8c0,2.4,2,4.4,4.4,4.4s4.4-2,4.4-4.4s-4.4-6.1-4.4-6.1S86.5,307.4,86.5,309.8z"/>
	<path class="st0" d="M95.3,97.6c0.1-2.4-1.9-4.5-4.3-4.5c-2.4-0.1-4.5,1.9-4.5,4.3c-0.1,2.4,4.3,6.2,4.3,6.2S95.2,100.1,95.3,97.6z
		"/>
	<path class="st3" d="M27,135c1.1,1.3,1.3,2.8,1.3,2.8s-1.5-0.1-2.9-1.1c-1.3-0.9-1.7-2.3-1.3-2.8C24.6,133.5,26.1,133.9,27,135z"/>
	<path class="st3" d="M158.1,138.8c-1.6,0.8-3.1,0.6-3.1,0.6s0.5-1.4,1.8-2.6c1.2-1.1,2.7-1.1,3.1-0.6
		C160.3,136.8,159.5,138,158.1,138.8z"/>
	<path class="st3" d="M170.7,178.4c-2.8,0.7-4.6,0.1-4.6,0.1s1.9-1.6,4.6-2.7c2.6-1.1,4.6-0.8,4.6-0.1
		C175.3,176.5,173.3,177.8,170.7,178.4z"/>
	<path class="st3" d="M11.6,176c2.7,0.8,4.1,2.2,4.1,2.2s-2.4,0.4-5.4,0.1c-2.8-0.3-4.4-1.6-4.1-2.2C6.5,175.4,9,175.3,11.6,176z"/>
	<path class="st3" d="M6.5,226.1c2.9,0.2,4.5,1.2,4.5,1.2s-2.3,0.9-5.2,1.3c-2.8,0.3-4.7-0.5-4.5-1.2C1.5,226.6,3.9,225.9,6.5,226.1
		z"/>
	<path class="st3" d="M174.6,231.3c-2.5-1.3-3.5-2.9-3.5-2.9s2.5,0.1,5.3,1c2.6,0.9,4,2.4,3.5,2.9C179.4,233,177,232.6,174.6,231.3z
		"/>
	<path class="st3" d="M75.3,98.1c0.1,1.7-0.7,3-0.7,3s-1.1-1-1.7-2.6c-0.5-1.5,0-2.9,0.7-3S75.2,96.5,75.3,98.1z"/>
	<path class="st3" d="M17.5,269.2c1.5-0.9,3-0.7,3-0.7s-0.4,1.4-1.6,2.6c-1.1,1.2-2.6,1.3-3,0.7C15.6,271.3,16.2,270,17.5,269.2z"/>
	<path class="st3" d="M67.8,308.8c0.4-1.7,1.7-2.6,1.7-2.6s0.7,1.3,0.7,3c0,1.6-1,2.7-1.7,2.6C67.9,311.7,67.4,310.3,67.8,308.8z"/>
	<path class="st3" d="M164.1,269.4c-1.3-1.1-1.6-2.6-1.6-2.6s1.5-0.1,3.1,0.6c1.4,0.7,2.1,2.1,1.6,2.6
		C166.7,270.5,165.3,270.3,164.1,269.4z"/>
	<path class="st3" d="M118.5,306.5c-0.3-1.7,0.5-3,0.5-3s1.2,0.9,1.9,2.5c0.6,1.4,0.2,2.9-0.5,3S118.8,308,118.5,306.5z"/>
	<path class="st3" d="M110.4,98.8c-0.8,1.6-2.2,2.2-2.2,2.2s-0.4-1.4-0.1-3.1c0.3-1.5,1.5-2.5,2.2-2.2
		C110.9,95.9,111.1,97.4,110.4,98.8z"/>
</g>
<g id="Layer_3">
	<g>
		<g>
			<path class="st4" d="M32.1,174.8L32.1,174.8L32.1,174.8L32.1,174.8c0.9-1.2,0,0,14.8-17.8c16.5,17,16.5,17,16.5,17l0,0
				c0,0,0,0,27.5-25.4l0,0c0.1-9.8-0.2-52.4-0.2-52.4s0,0-0.1-4.4c-34.5,0-62.9,27.3-78.3,63.7l0,0
				C30.9,173.3,32.1,174.8,32.1,174.8z"/>
		</g>
	</g>
</g>
<g id="Layer_4">
	<g>
		<g>
			<path class="st4" d="M169.4,157c-14.3-38.2-44.9-65.2-78.8-65.2c-0.4,0,0.4,0,0,0c0.1,1.3,0.1,1.3,0.1,1.7c0,7.6,0,0,0,0
				c-0.1,7.3,0,0,0.2,55.1l0,0l0,0l0,0c20,26.5,17.3,23.3,20,26.5l0,0l0,0c0,0,0,0,18.4-22.2l0,0c0.2,0-0.2-0.1,0,0
				c25.1,19.5,25.1,19.5,25.1,19.5l0,0C154.4,172.4,154.4,172.4,169.4,157z"/>
		</g>
	</g>
</g>
<g id="Layer_1_1_">
	<g>
		<g>
			<path class="st4" d="M169.4,157l-4.5,4.6l-4.3,4.4l-2.4,2.5l-3.8,3.9l-3.7-2.8l-17.1-13.3l-4.4-3.4l-8,9.6l-2.7,3.3l-2.4,2.9
				l-3.2,3.8l-2.1,2.5l-8.6-11.3l-2.1-2.8l-9.2-12.3l-9.6,8.8l-6.4,5.9l-3.4,3.1l-2.5,2.3l-2.8,2.6l-2.8,2.6l-6.3-6.6l-6.6-6.8
				l-3.6-3.7l-5.3,6.4l-2.2,2.6l-1.7,2l-3.5,4.3l-2.1,2.5l0,0c-1.4-1.5-19.8-19.4-19.8-19.4l0,0l0,0c-1.6,3.8,0,0-1.6,3.8
				C3.9,176.3,0,195.3,0,214.4c0,61.8,40.7,101.1,90.7,101.1s90.6-39.3,90.6-101.1C181.3,195.5,176.6,173,169.4,157z"/>
		</g>
	</g>
</g>
</svg>
