<?xml version="1.0" encoding="utf-8"?>
<!-- Generator: Adobe Illustrator 21.1.0, SVG Export Plug-In . SVG Version: 6.00 Build 0)  -->
<svg version="1.1" id="Layer_1" xmlns="http://www.w3.org/2000/svg" xmlns:xlink="http://www.w3.org/1999/xlink" x="0px" y="0px"
	 viewBox="0 0 215.8 91.2" style="enable-background:new 0 0 215.8 91.2;" xml:space="preserve">
<style type="text/css">
	.st0{clip-path:url(#SVGID_2_);}
	.st1{clip-path:url(#SVGID_4_);fill:#D8DEEC;}
	.st2{clip-path:url(#SVGID_6_);}
	.st3{clip-path:url(#SVGID_8_);fill:#B0B9D2;}
	.st4{clip-path:url(#SVGID_10_);}
	.st5{clip-path:url(#SVGID_12_);fill:#E15150;}
	.st6{clip-path:url(#SVGID_14_);}
	.st7{clip-path:url(#SVGID_16_);fill:#D24247;}
	.st8{clip-path:url(#SVGID_18_);}
	.st9{clip-path:url(#SVGID_20_);fill:#FFFFFF;}
</style>
<g>
	<defs>
		<path id="SVGID_1_" d="M0.8,72.3C5.5,88.6,28,96.6,61.1,87.1c11-3.2,18.9-12,21.4-22.4c1.3-5.3,5.4-9.3,10.6-10.8l20.8-6
			l-4.2-14.8l-20.8,6c-5.2,1.5-10.9,0.2-14.7-3.6c-7.6-7.5-19-10.8-30-7.7C11,37.3-3.8,55.9,0.8,72.3z"/>
	</defs>
	<clipPath id="SVGID_2_">
		<use xlink:href="#SVGID_1_"  style="overflow:visible;"/>
	</clipPath>
	<g class="st0">
		<defs>
			<rect id="SVGID_3_" x="-108.7" y="-131" width="375" height="667"/>
		</defs>
		<clipPath id="SVGID_4_">
			<use xlink:href="#SVGID_3_"  style="overflow:visible;"/>
		</clipPath>
		
			<rect x="-6.4" y="20.5" transform="matrix(0.9613 -0.2756 0.2756 0.9613 -13.3587 17.6987)" class="st1" width="125.3" height="71.7"/>
	</g>
</g>
<g>
	<defs>
		
			<rect id="SVGID_5_" x="100.4" y="34.4" transform="matrix(0.9613 -0.2756 0.2756 0.9613 -7.4823 30.8973)" width="11.5" height="15.4"/>
	</defs>
	<clipPath id="SVGID_6_">
		<use xlink:href="#SVGID_5_"  style="overflow:visible;"/>
	</clipPath>
	<g class="st2">
		<defs>
			<rect id="SVGID_7_" x="-108.7" y="-131" width="375" height="667"/>
		</defs>
		<clipPath id="SVGID_8_">
			<use xlink:href="#SVGID_7_"  style="overflow:visible;"/>
		</clipPath>
		
			<rect x="95.4" y="29.4" transform="matrix(0.9613 -0.2756 0.2756 0.9613 -7.4823 30.8974)" class="st3" width="21.5" height="25.4"/>
	</g>
</g>
<g>
	<defs>
		<path id="SVGID_9_" d="M215.2,10.8L215.2,10.8c2.3,8.1-2.5,16.5-10.6,18.6l-89.7,22.4c-2,0.5-4.1-0.7-4.6-2.7L105.9,34
			c-0.6-2,0.5-4.1,2.5-4.7l88-28.6C204.3-1.9,212.9,2.7,215.2,10.8z"/>
	</defs>
	<clipPath id="SVGID_10_">
		<use xlink:href="#SVGID_9_"  style="overflow:visible;"/>
	</clipPath>
	<g class="st4">
		<defs>
			<rect id="SVGID_11_" x="-108.7" y="-131" width="375" height="667"/>
		</defs>
		<clipPath id="SVGID_12_">
			<use xlink:href="#SVGID_11_"  style="overflow:visible;"/>
		</clipPath>
		
			<rect x="100.9" y="6.3" transform="matrix(0.9613 -0.2756 0.2756 0.9613 -0.9533 45.5623)" class="st5" width="121.5" height="39.8"/>
	</g>
</g>
<g>
	<defs>
		<path id="SVGID_13_" d="M201.5,18.7l-89.7,22.4c-2,0.5-4.1-0.7-4.6-2.7l-1.3-4.5l0,0l4.3,15.1c0.6,2,2.6,3.2,4.6,2.7l89.7-22.4
			c8.1-2,13-10.4,10.7-18.5l0,0c-0.5-1.9-1.4-3.5-2.6-5C212,11.8,207.8,17.2,201.5,18.7z"/>
	</defs>
	<clipPath id="SVGID_14_">
		<use xlink:href="#SVGID_13_"  style="overflow:visible;"/>
	</clipPath>
	<g class="st6">
		<defs>
			<rect id="SVGID_15_" x="-108.7" y="-131" width="375" height="667"/>
		</defs>
		<clipPath id="SVGID_16_">
			<use xlink:href="#SVGID_15_"  style="overflow:visible;"/>
		</clipPath>
		
			<rect x="101.8" y="13.2" transform="matrix(0.9613 -0.2756 0.2756 0.9613 -1.8501 45.9616)" class="st7" width="121.5" height="32.7"/>
	</g>
</g>
<g>
	<defs>
		<path id="SVGID_17_" d="M52.6,80.4c-21.3,9.9-41.3,2.3-49.3-14.9S2.3,28,23.6,18.1c21.2-9.9,48.7-5.7,56.7,11.5
			S73.9,70.5,52.6,80.4z"/>
	</defs>
	<clipPath id="SVGID_18_">
		<use xlink:href="#SVGID_17_"  style="overflow:visible;"/>
	</clipPath>
	<g class="st8">
		<defs>
			<rect id="SVGID_19_" x="-108.7" y="-131" width="375" height="667"/>
		</defs>
		<clipPath id="SVGID_20_">
			<use xlink:href="#SVGID_19_"  style="overflow:visible;"/>
		</clipPath>
		
			<rect x="-5.7" y="8.1" transform="matrix(0.9063 -0.4226 0.4226 0.9063 -16.1544 22.1149)" class="st9" width="94.9" height="78.7"/>
	</g>
</g>
</svg>
