<?xml version="1.0" encoding="utf-8"?>
<!-- Generator: Adobe Illustrator 21.1.0, SVG Export Plug-In . SVG Version: 6.00 Build 0)  -->
<svg version="1.1" id="Layer_1" xmlns="http://www.w3.org/2000/svg" xmlns:xlink="http://www.w3.org/1999/xlink" x="0px" y="0px"
	 viewBox="0 0 375 326.3" style="enable-background:new 0 0 375 326.3;" xml:space="preserve">
<style type="text/css">
	.st0{clip-path:url(#SVGID_2_);}
	.st1{clip-path:url(#SVGID_4_);fill:#ACACAC;}
	.st2{opacity:0.4;enable-background:new    ;}
	.st3{clip-path:url(#SVGID_6_);}
	.st4{clip-path:url(#SVGID_8_);}
	.st5{clip-path:url(#SVGID_10_);fill:#CDCCCC;}
	.st6{clip-path:url(#SVGID_12_);}
	.st7{clip-path:url(#SVGID_14_);fill:#E7E8E9;}
	.st8{clip-path:url(#SVGID_16_);}
	.st9{clip-path:url(#SVGID_18_);fill:#7BCCE9;}
	.st10{opacity:0.6;enable-background:new    ;}
	.st11{clip-path:url(#SVGID_20_);}
	.st12{clip-path:url(#SVGID_22_);}
	.st13{clip-path:url(#SVGID_24_);fill:#7BCCE9;}
	.st14{clip-path:url(#SVGID_26_);}
	.st15{clip-path:url(#SVGID_28_);fill:#D8D8D8;}
	.st16{clip-path:url(#SVGID_34_);}
	.st17{clip-path:url(#SVGID_36_);}
	.st18{clip-path:url(#SVGID_38_);fill:#ABABAB;}
	.st19{clip-path:url(#SVGID_40_);}
	.st20{fill:#CDCCCC;}
	.st21{clip-path:url(#SVGID_42_);}
	.st22{fill:#FFFFFF;}
	.st23{clip-path:url(#SVGID_44_);}
	.st24{clip-path:url(#SVGID_46_);}
	.st25{clip-path:url(#SVGID_48_);}
	.st26{clip-path:url(#SVGID_50_);}
	.st27{clip-path:url(#SVGID_52_);}
	.st28{clip-path:url(#SVGID_54_);fill:#FFFFFF;}
	.st29{clip-path:url(#SVGID_56_);}
	.st30{clip-path:url(#SVGID_58_);fill:#D8DEEC;}
	.st31{clip-path:url(#SVGID_60_);}
	.st32{clip-path:url(#SVGID_62_);fill:#B0B9D2;}
	.st33{clip-path:url(#SVGID_64_);}
	.st34{fill:#E15150;}
	.st35{clip-path:url(#SVGID_66_);}
	.st36{fill:#D24247;}
	.st37{clip-path:url(#SVGID_68_);}
	.st38{clip-path:url(#SVGID_70_);fill:#FFFFFF;}
    
    .st26, .st24, .st25 {
    animation: bubb 1.0s infinite;
    }
    
    @keyframes bubb {
    0%{transform:translateY(1px)}
    50%{transform:translateY(5px)}
    100%{transform:translateY(1px)}
    } 
    
    .st23, .st27, .st21 {
    animation: bubb2 1.3s infinite;
    }
    
    @keyframes bubb2 {
    0%{transform:translateY(1px)}
    50%{transform:translateY(4px)}
    100%{transform:translateY(1px)}
    }
    
    .st37, .st35, .st33, .st31, .st29 {
    animation: spoon 2.0s infinite;
    }
    
    @keyframes spoon {
    0%{transform:translateY(0px)}
    50%{transform:translateY(4px)}
    100%{transform:translateY(0px)}
    }
    
    
    
    
</style>
<g>
	<defs>
		<path id="SVGID_1_" d="M324,194.5c0,5.4-4.3,9.7-9.7,9.7h-23.4c-5.4,0-9.7-4.3-9.7-9.7c0-5.4,4.3-9.7,9.7-9.7h23.4
			C319.7,184.7,324,189.1,324,194.5z"/>
	</defs>
	<clipPath id="SVGID_2_">
		<use xlink:href="#SVGID_1_"  style="overflow:visible;"/>
	</clipPath>
	<g class="st0">
		<defs>
			<rect id="SVGID_3_" y="-137" width="375" height="667"/>
		</defs>
		<clipPath id="SVGID_4_">
			<use xlink:href="#SVGID_3_"  style="overflow:visible;"/>
		</clipPath>
		<rect x="276.1" y="179.7" class="st1" width="52.9" height="29.4"/>
	</g>
</g>
<g>
	<g class="st2">
		<g>
			<defs>
				<rect id="SVGID_5_" x="281" y="184" width="43" height="21"/>
			</defs>
			<clipPath id="SVGID_6_">
				<use xlink:href="#SVGID_5_"  style="overflow:visible;"/>
			</clipPath>
			<g class="st3">
				<defs>
					<path id="SVGID_7_" d="M324,194.5c0,5.4-4.3,9.7-9.7,9.7h-23.4c-5.4,0-9.7-4.3-9.7-9.7c0-5.4,4.3-9.7,9.7-9.7h23.4
						C319.7,184.7,324,189.1,324,194.5z"/>
				</defs>
				<clipPath id="SVGID_8_">
					<use xlink:href="#SVGID_7_"  style="overflow:visible;"/>
				</clipPath>
				<g class="st4">
					<defs>
						<rect id="SVGID_9_" x="280" y="184" width="45" height="21"/>
					</defs>
					<clipPath id="SVGID_10_">
						<use xlink:href="#SVGID_9_"  style="overflow:visible;"/>
					</clipPath>
					<rect x="276.1" y="179.7" class="st5" width="52.9" height="29.4"/>
				</g>
			</g>
		</g>
	</g>
</g>
<g>
	<defs>
		<ellipse id="SVGID_11_" cx="187.3" cy="139.6" rx="111.2" ry="31.5"/>
	</defs>
	<clipPath id="SVGID_12_">
		<use xlink:href="#SVGID_11_"  style="overflow:visible;"/>
	</clipPath>
	<g class="st6">
		<defs>
			<rect id="SVGID_13_" y="-137" width="375" height="667"/>
		</defs>
		<clipPath id="SVGID_14_">
			<use xlink:href="#SVGID_13_"  style="overflow:visible;"/>
		</clipPath>
		<rect x="71.1" y="103.1" class="st7" width="232.3" height="73"/>
	</g>
</g>
<g>
	<defs>
		<path id="SVGID_15_" d="M91,155.3c19.2,9.4,55.1,15.7,96.3,15.7c41.1,0,77-6.3,96.3-15.7c-19.2-9.4-55.1-15.7-96.3-15.7
			C146.1,139.6,110.2,145.9,91,155.3z"/>
	</defs>
	<clipPath id="SVGID_16_">
		<use xlink:href="#SVGID_15_"  style="overflow:visible;"/>
	</clipPath>
	<g class="st8">
		<defs>
			<rect id="SVGID_17_" y="-137" width="375" height="667"/>
		</defs>
		<clipPath id="SVGID_18_">
			<use xlink:href="#SVGID_17_"  style="overflow:visible;"/>
		</clipPath>
		<rect x="86" y="134.6" class="st9" width="202.5" height="41.5"/>
	</g>
</g>
<g>
	<g class="st10">
		<g>
			<defs>
				<rect id="SVGID_19_" x="91" y="139" width="169" height="38"/>
			</defs>
			<clipPath id="SVGID_20_">
				<use xlink:href="#SVGID_19_"  style="overflow:visible;"/>
			</clipPath>
			<g class="st11">
				<defs>
					<path id="SVGID_21_" d="M174.3,139.8c-15.3,0.9-4.1,37.5,84.8,23.8c-19.4,4.7-44.4,7.5-71.8,7.5c-41.1,0-77-6.3-96.3-15.7
						C108.2,146.9,138.7,141,174.3,139.8z"/>
				</defs>
				<clipPath id="SVGID_22_">
					<use xlink:href="#SVGID_21_"  style="overflow:visible;"/>
				</clipPath>
				<g class="st12">
					<defs>
						<rect id="SVGID_23_" x="90" y="139" width="170" height="33"/>
					</defs>
					<clipPath id="SVGID_24_">
						<use xlink:href="#SVGID_23_"  style="overflow:visible;"/>
					</clipPath>
					<rect x="86" y="134.8" class="st13" width="178.1" height="41.3"/>
				</g>
			</g>
		</g>
	</g>
</g>
<g>
	<defs>
		<path id="SVGID_25_" d="M187.3,171.1c-61.4,0-111.2-14.1-111.2-31.5v149.2c0,20.7,49.8,37.5,111.2,37.5
			c61.4,0,111.2-16.8,111.2-37.5V139.6C298.5,157,248.7,171.1,187.3,171.1z"/>
	</defs>
	<clipPath id="SVGID_26_">
		<use xlink:href="#SVGID_25_"  style="overflow:visible;"/>
	</clipPath>
	<g class="st14">
		<defs>
			<rect id="SVGID_27_" y="-137" width="375" height="667"/>
		</defs>
		<clipPath id="SVGID_28_">
			<use xlink:href="#SVGID_27_"  style="overflow:visible;"/>
		</clipPath>
		<rect x="71.1" y="134.6" class="st15" width="232.3" height="196.7"/>
	</g>
</g>
<g>
	<defs>
		<path id="SVGID_29_" d="M76.1,138.9v0.7C76.1,139.4,76.2,139.1,76.1,138.9L76.1,138.9z"/>
	</defs>
	<clipPath id="SVGID_30_">
		<use xlink:href="#SVGID_29_"  style="overflow:visible;"/>
	</clipPath>
</g>
<g>
	<defs>
		<path id="SVGID_31_" d="M298.4,138.9c0,0.2,0.1,0.5,0.1,0.7L298.4,138.9L298.4,138.9z"/>
	</defs>
	<clipPath id="SVGID_32_">
		<use xlink:href="#SVGID_31_"  style="overflow:visible;"/>
	</clipPath>
</g>
<g>
	<g class="st2">
		<g>
			<defs>
				<rect id="SVGID_33_" x="76" y="163" width="223" height="164"/>
			</defs>
			<clipPath id="SVGID_34_">
				<use xlink:href="#SVGID_33_"  style="overflow:visible;"/>
			</clipPath>
			<g class="st16">
				<defs>
					<path id="SVGID_35_" d="M212.5,286.3c-31.5,21.6-67.3,27.6-136.4,2.5c0,20.7,49.8,37.5,111.2,37.5
						c61.4,0,111.2-16.8,111.2-37.5V163.6C266.8,232.4,256.6,256.2,212.5,286.3z"/>
				</defs>
				<clipPath id="SVGID_36_">
					<use xlink:href="#SVGID_35_"  style="overflow:visible;"/>
				</clipPath>
				<g class="st17">
					<defs>
						<rect id="SVGID_37_" x="76" y="163" width="224" height="164"/>
					</defs>
					<clipPath id="SVGID_38_">
						<use xlink:href="#SVGID_37_"  style="overflow:visible;"/>
					</clipPath>
					<rect x="71.1" y="158.6" class="st18" width="232.3" height="172.8"/>
				</g>
			</g>
		</g>
	</g>
</g>
<g>
	<defs>
		<path id="SVGID_39_" d="M93.9,194.5c0,5.4-4.3,9.7-9.7,9.7H60.7c-5.4,0-9.7-4.3-9.7-9.7c0-5.4,4.3-9.7,9.7-9.7h23.4
			C89.5,184.7,93.9,189.1,93.9,194.5z"/>
	</defs>
	<clipPath id="SVGID_40_">
		<use xlink:href="#SVGID_39_"  style="overflow:visible;"/>
	</clipPath>
	<g class="st19">
		<rect x="46" y="179.7" class="st20" width="52.9" height="29.4"/>
	</g>
</g>
<g>
	<defs>
		<path id="SVGID_41_" d="M169.4,163.9c2.5,0,4.6,1.5,5.4,3.7c0.3-0.7,0.4-1.4,0.4-2.2c0-3.2-2.6-5.9-5.9-5.9
			c-3.2,0-5.9,2.6-5.9,5.9c0,0.8,0.2,1.5,0.4,2.2C164.9,165.5,167,163.9,169.4,163.9z"/>
	</defs>
	<clipPath id="SVGID_42_">
		<use xlink:href="#SVGID_41_"  style="overflow:visible;"/>
	</clipPath>
	<g class="st21">
		<rect x="158.5" y="154.5" class="st22" width="21.8" height="18.1"/>
	</g>
</g>
<g>
	<defs>
		<path id="SVGID_43_" d="M145.7,151.9c1.6,0,3,0.9,3.7,2.2c0.4-0.6,0.6-1.4,0.6-2.2c0-2.4-1.9-4.3-4.3-4.3s-4.3,1.9-4.3,4.3
			c0,0.8,0.2,1.5,0.6,2.2C142.7,152.8,144.1,151.9,145.7,151.9z"/>
	</defs>
	<clipPath id="SVGID_44_">
		<use xlink:href="#SVGID_43_"  style="overflow:visible;"/>
	</clipPath>
	<g class="st23">
		<rect x="136.4" y="142.6" class="st22" width="18.7" height="16.5"/>
	</g>
</g>
<g>
	<defs>
		<path id="SVGID_45_" d="M113.2,158c1.6,0,3,0.9,3.7,2.2c0.4-0.6,0.6-1.4,0.6-2.2c0-2.4-1.9-4.3-4.3-4.3c-2.4,0-4.3,1.9-4.3,4.3
			c0,0.8,0.2,1.5,0.6,2.2C110.2,158.8,111.6,158,113.2,158z"/>
	</defs>
	<clipPath id="SVGID_46_">
		<use xlink:href="#SVGID_45_"  style="overflow:visible;"/>
	</clipPath>
	<g class="st24">
		<rect x="103.8" y="148.6" class="st22" width="18.7" height="16.5"/>
	</g>
</g>
<g>
	<defs>
		<path id="SVGID_47_" d="M263.4,155.3c1.6,0,3,0.9,3.7,2.2c0.4-0.6,0.6-1.4,0.6-2.2c0-2.4-1.9-4.3-4.3-4.3c-2.4,0-4.3,1.9-4.3,4.3
			c0,0.8,0.2,1.5,0.6,2.2C260.4,156.2,261.8,155.3,263.4,155.3z"/>
	</defs>
	<clipPath id="SVGID_48_">
		<use xlink:href="#SVGID_47_"  style="overflow:visible;"/>
	</clipPath>
	<g class="st25">
		<rect x="254.1" y="146" class="st22" width="18.7" height="16.5"/>
	</g>
</g>
<g>
	<defs>
		<path id="SVGID_49_" d="M189.6,140.9c1.6,0,3,0.9,3.7,2.2c0.4-0.6,0.6-1.4,0.6-2.2c0-2.4-1.9-4.3-4.3-4.3c-2.4,0-4.3,1.9-4.3,4.3
			c0,0.8,0.2,1.5,0.6,2.2C186.7,141.8,188,140.9,189.6,140.9z"/>
	</defs>
	<clipPath id="SVGID_50_">
		<use xlink:href="#SVGID_49_"  style="overflow:visible;"/>
	</clipPath>
	<g class="st26">
		<rect x="180.3" y="131.6" class="st22" width="18.7" height="16.5"/>
	</g>
</g>
<g>
	<defs>
		<path id="SVGID_51_" d="M222.8,152.9c3,0,5.5,1.6,6.9,4c0.7-1.2,1.1-2.5,1.1-4c0-4.4-3.6-8-8-8c-4.4,0-8,3.6-8,8
			c0,1.5,0.4,2.8,1.1,4C217.3,154.5,219.8,152.9,222.8,152.9z"/>
	</defs>
	<clipPath id="SVGID_52_">
		<use xlink:href="#SVGID_51_"  style="overflow:visible;"/>
	</clipPath>
	<g class="st27">
		<defs>
			<rect id="SVGID_53_" y="-137" width="375" height="667"/>
		</defs>
		<clipPath id="SVGID_54_">
			<use xlink:href="#SVGID_53_"  style="overflow:visible;"/>
		</clipPath>
		<rect x="209.8" y="139.8" class="st28" width="26.1" height="22"/>
	</g>
</g>
<g>
	<defs>
		<path id="SVGID_55_" d="M195.8,66.2c4.7,16.4,27.1,24.3,60.2,14.8c11-3.2,18.9-12,21.4-22.4c1.3-5.3,5.4-9.3,10.6-10.8l20.8-6
			L304.6,27l-20.8,6c-5.2,1.5-10.9,0.2-14.7-3.6c-7.6-7.5-19-10.8-30-7.7C206,31.3,191.1,49.9,195.8,66.2z"/>
	</defs>
	<clipPath id="SVGID_56_">
		<use xlink:href="#SVGID_55_"  style="overflow:visible;"/>
	</clipPath>
	<g class="st29">
		<defs>
			<rect id="SVGID_57_" y="-137" width="375" height="667"/>
		</defs>
		<clipPath id="SVGID_58_">
			<use xlink:href="#SVGID_57_"  style="overflow:visible;"/>
		</clipPath>
		
			<rect x="188.6" y="14.5" transform="matrix(0.9613 -0.2756 0.2756 0.9613 -4.1447 71.2078)" class="st30" width="125.3" height="71.7"/>
	</g>
</g>
<g>
	<defs>
		
			<rect id="SVGID_59_" x="295.4" y="28.3" transform="matrix(0.9613 -0.2756 0.2756 0.9613 1.7318 84.4062)" width="11.5" height="15.4"/>
	</defs>
	<clipPath id="SVGID_60_">
		<use xlink:href="#SVGID_59_"  style="overflow:visible;"/>
	</clipPath>
	<g class="st31">
		<defs>
			<rect id="SVGID_61_" y="-137" width="375" height="667"/>
		</defs>
		<clipPath id="SVGID_62_">
			<use xlink:href="#SVGID_61_"  style="overflow:visible;"/>
		</clipPath>
		
			<rect x="290.4" y="23.3" transform="matrix(0.9613 -0.2756 0.2756 0.9613 1.7318 84.4064)" class="st32" width="21.5" height="25.4"/>
	</g>
</g>
<g>
	<defs>
		<path id="SVGID_63_" d="M375,29.4l-65.2,16.3c-2,0.5-4.1-0.7-4.6-2.7L300.8,28c-0.6-2,0.5-4.1,2.5-4.7L375,0L375,29.4z"/>
	</defs>
	<clipPath id="SVGID_64_">
		<use xlink:href="#SVGID_63_"  style="overflow:visible;"/>
	</clipPath>
	<g class="st33">
		<polygon class="st34" points="292.7,17.8 303.7,56 375,35.6 375,-5.8 		"/>
	</g>
</g>
<g>
	<defs>
		<path id="SVGID_65_" d="M375,18.1l-68.2,17c-2,0.5-4.1-0.7-4.6-2.7l-1.3-4.5l0,0l4.3,15.1c0.6,2,2.6,3.2,4.6,2.7L375,29.4"/>
	</defs>
	<clipPath id="SVGID_66_">
		<use xlink:href="#SVGID_65_"  style="overflow:visible;"/>
	</clipPath>
	<g class="st35">
		<polygon class="st36" points="294.7,24.5 303.7,56 375,35.6 375,1.5 		"/>
	</g>
</g>
<g>
	<defs>
		<path id="SVGID_67_" d="M247.3,74.4C226,84.3,206,76.6,198,59.4c-8-17.2-1-37.4,20.2-47.4C239.5,2.2,267,6.3,275,23.6
			C283,40.8,268.6,64.5,247.3,74.4z"/>
	</defs>
	<clipPath id="SVGID_68_">
		<use xlink:href="#SVGID_67_"  style="overflow:visible;"/>
	</clipPath>
	<g class="st37">
		<defs>
			<rect id="SVGID_69_" y="-137" width="375" height="667"/>
		</defs>
		<clipPath id="SVGID_70_">
			<use xlink:href="#SVGID_69_"  style="overflow:visible;"/>
		</clipPath>
		
			<rect x="189" y="2.1" transform="matrix(0.9063 -0.4226 0.4226 0.9063 4.6205 103.8373)" class="st38" width="94.9" height="78.7"/>
	</g>
</g>
</svg>
